<?xml version="1.0" encoding="UTF-8" standalone="no"?>
<svg width="104px" height="77px" viewBox="0 0 104 77" version="1.1" xmlns="http://www.w3.org/2000/svg" xmlns:xlink="http://www.w3.org/1999/xlink">
    <!-- Generator: Sketch 39.1 (31720) - http://www.bohemiancoding.com/sketch -->
    <title>Group</title>
    <desc>Created with Sketch.</desc>
    <defs></defs>
    <g id="Guide---CTAs" stroke="none" stroke-width="1" fill="none" fill-rule="evenodd">
        <g id="CTA---Empty-States" transform="translate(-1577.000000, -644.000000)">
            <g id="Group" transform="translate(1579.000000, 631.000000)">
                <rect id="Rectangle-3" x="0" y="0" width="100" height="100"></rect>
                <path d="M100,51.0387539 L100,51.1146069 L100,51.1887358 C100,63.5596566 98.7656662,74.2618132 98.7656662,74.2618132 C98.1122968,80.142138 94.1127795,84.1364835 88.5272467,84.8829452 C88.5272467,84.8829452 72.9032703,87.2274898 50.073267,87.2274898 L50.000862,87.2274898 L49.926733,87.2274898 C27.0984536,87.2274898 11.4744772,84.8829452 11.4744772,84.8829452 C5.88722051,84.1364835 1.88942714,80.142138 1.23605772,74.2618132 C1.23605772,74.2618132 0,63.5596566 0,51.1887358 L0,51.1146069 L0,51.0387539 C0,38.6678332 1.23605772,27.9656766 1.23605772,27.9656766 C1.88942714,22.0853518 5.88722051,18.0910063 11.4744772,17.3445446 C11.4744772,17.3445446 27.0984536,15 49.926733,15 L50.000862,15 L50.073267,15 C72.9032703,15 88.5272467,17.3445446 88.5272467,17.3445446 C94.1127795,18.0910063 98.1122968,22.0853518 98.7656662,27.9656766 C98.7656662,27.9656766 100,38.6678332 100,51.0387539 L100,51.0387539 Z" id="Fill-1" stroke="#0B87E4" stroke-width="3.667" stroke-dasharray="5,4.329999923706055"></path>
                <polygon id="Path" fill="#0B87E4" points="54.3348217 46.6754874 70.748358 46.6754874 70.748358 55.5520023 54.3348217 55.5520023 54.3348217 72.3551468 45.6651783 72.3551468 45.6651783 55.5520023 29.253366 55.5520023 29.253366 46.6754874 45.6651783 46.6754874 45.6651783 29.8706191 54.3348217 29.8706191"></polygon>
            </g>
        </g>
    </g>
</svg>