<?xml version="1.0" encoding="iso-8859-1"?>
<!-- Generator: Adobe Illustrator 17.0.0, SVG Export Plug-In . SVG Version: 6.00 Build 0)  -->
<!DOCTYPE svg PUBLIC "-//W3C//DTD SVG 1.1//EN" "http://www.w3.org/Graphics/SVG/1.1/DTD/svg11.dtd">
<svg version="1.1" xmlns="http://www.w3.org/2000/svg" xmlns:xlink="http://www.w3.org/1999/xlink" x="0px" y="0px" width="60px"
	 height="60px" viewBox="-310.427 249.315 60 60" style="enable-background:new -310.427 249.315 60 60;" xml:space="preserve">
<g id="Layer_1">
	<path style="fill:#FFFFFF;" d="M-254.196,279.315c0-14.464-11.767-26.231-26.231-26.231c-14.464,0-26.231,11.767-26.231,26.231
		c0,14.464,11.767,26.231,26.231,26.231C-265.963,305.545-254.196,293.778-254.196,279.315z M-256.998,279.315
		c0,12.919-10.51,23.429-23.429,23.429c-12.919,0-23.429-10.51-23.429-23.429c0-12.919,10.51-23.429,23.429-23.429
		C-268.154,255.886-256.998,267.042-256.998,279.315z"/>
</g>
<g id="Layer_3">
</g>
<g id="Layer_2">
	<path style="fill:#FFFFFF;" d="M-254.196,279.315c0-14.464-11.767-26.231-26.231-26.231c-14.464,0-26.231,11.767-26.231,26.231
		c0,14.464,11.767,26.231,26.231,26.231C-265.963,305.545-254.196,293.778-254.196,279.315z M-256.998,279.315
		c0,12.919-10.51,23.429-23.429,23.429c-12.919,0-23.429-10.51-23.429-23.429c0-12.919,10.51-23.429,23.429-23.429
		C-268.154,255.886-256.998,267.042-256.998,279.315z"/>
	<rect x="-288.131" y="268.469" style="fill:#FFFFFF;" width="5.915" height="21.691"/>
	<rect x="-278.637" y="268.469" style="fill:#FFFFFF;" width="5.915" height="21.691"/>
</g>
</svg>
