<?xml version="1.0" encoding="iso-8859-1"?>
<!-- Generator: Adobe Illustrator 17.0.0, SVG Export Plug-In . SVG Version: 6.00 Build 0)  -->
<!DOCTYPE svg PUBLIC "-//W3C//DTD SVG 1.1//EN" "http://www.w3.org/Graphics/SVG/1.1/DTD/svg11.dtd">
<svg version="1.1" xmlns="http://www.w3.org/2000/svg" xmlns:xlink="http://www.w3.org/1999/xlink" x="0px" y="0px" width="60px"
	 height="60px" viewBox="-25.427 183.099 60 60" style="enable-background:new -25.427 183.099 60 60;" xml:space="preserve">
<g id="Layer_1">
	<path style="fill:#FFFFFF;" d="M4.616,195.168c12.843,0,21.79,1.315,21.878,1.329l0.023,0.003l0.023,0.003
		c1.936,0.259,3.172,1.538,3.393,3.523c0.007,0.06,0.697,6.131,0.697,13.03v0.044v0.043c0,6.899-0.689,12.97-0.698,13.043
		c-0.219,1.972-1.455,3.252-3.391,3.51l-0.023,0.003l-0.023,0.003c-0.089,0.013-8.999,1.329-21.878,1.329H4.573H4.531
		c-12.842,0-21.79-1.315-21.878-1.329l-0.023-0.003l-0.023-0.003c-1.936-0.259-3.172-1.538-3.392-3.523
		c-0.007-0.06-0.697-6.131-0.697-13.03v-0.043v-0.044c0-6.899,0.689-12.97,0.698-13.043c0.219-1.972,1.455-3.252,3.391-3.51
		l0.023-0.003l0.023-0.003c0.089-0.013,9-1.329,21.878-1.329h0.042H4.616 M4.616,192.15c-0.014,0-0.028,0-0.042,0
		c-0.014,0-0.028,0-0.042,0c-13.242,0-22.306,1.36-22.306,1.36c-3.241,0.433-5.56,2.751-5.939,6.162c0,0-0.717,6.208-0.717,13.384
		c0,0.014,0,0.029,0,0.044c0,0.014,0,0.029,0,0.043c0,7.175,0.717,13.384,0.717,13.384c0.379,3.411,2.698,5.729,5.939,6.162
		c0,0,9.063,1.36,22.306,1.36c0.014,0,0.028,0,0.042,0c0.014,0,0.028,0,0.042,0c13.243,0,22.306-1.36,22.306-1.36
		c3.241-0.433,5.56-2.75,5.939-6.162c0,0,0.717-6.208,0.717-13.384c0-0.014,0-0.029,0-0.043c0-0.015,0-0.029,0-0.044
		c0-7.175-0.717-13.384-0.717-13.384c-0.379-3.411-2.698-5.729-5.939-6.162C26.921,193.51,17.858,192.15,4.616,192.15L4.616,192.15z
		 M16.608,210.524h-9.52v-9.747H2.059v9.747h-9.52v5.149h9.52v9.748h5.029v-9.748h9.52V210.524z"/>
</g>
<g id="Layer_3">
</g>
<g id="Layer_2">
</g>
</svg>
