<?xml version="1.0" encoding="iso-8859-1"?>
<!-- Generator: Adobe Illustrator 17.0.0, SVG Export Plug-In . SVG Version: 6.00 Build 0)  -->
<!DOCTYPE svg PUBLIC "-//W3C//DTD SVG 1.1//EN" "http://www.w3.org/Graphics/SVG/1.1/DTD/svg11.dtd">
<svg version="1.1" xmlns="http://www.w3.org/2000/svg" xmlns:xlink="http://www.w3.org/1999/xlink" x="0px" y="0px" width="60px"
	 height="60px" viewBox="-124.608 183.099 60 60" style="enable-background:new -124.608 183.099 60 60;" xml:space="preserve">
<g id="Layer_1">
	<path style="fill:#FFFFFF;" d="M-68.377,213.099c0-14.464-11.767-26.231-26.231-26.231c-14.464,0-26.231,11.767-26.231,26.231
		s11.767,26.231,26.231,26.231C-80.144,239.33-68.377,227.563-68.377,213.099z M-71.179,213.099
		c0,12.919-10.51,23.429-23.429,23.429c-12.919,0-23.429-10.51-23.429-23.429c0-12.919,10.51-23.429,23.429-23.429
		C-82.335,189.67-71.179,200.826-71.179,213.099z M-86.781,224.202v5.73h-3.581h-8.594h-3.479v-5.73h3.479v-13.403h-3.479v-5.934
		h3.479h8.594v5.934v13.403H-86.781z M-94.557,193.683c-2.486,0-4.502,2.016-4.502,4.502c0,2.486,2.016,4.502,4.502,4.502
		c2.486,0,4.502-2.016,4.502-4.502C-90.055,195.698-92.071,193.683-94.557,193.683z"/>
</g>
<g id="Layer_3">
</g>
<g id="Layer_2">
</g>
</svg>
