<?xml version="1.0" encoding="iso-8859-1"?>
<!-- Generator: Adobe Illustrator 17.0.0, SVG Export Plug-In . SVG Version: 6.00 Build 0)  -->
<!DOCTYPE svg PUBLIC "-//W3C//DTD SVG 1.1//EN" "http://www.w3.org/Graphics/SVG/1.1/DTD/svg11.dtd">
<svg version="1.1" xmlns="http://www.w3.org/2000/svg" xmlns:xlink="http://www.w3.org/1999/xlink" x="0px" y="0px" width="60px"
	 height="60px" viewBox="124.907 258.433 60 60" style="enable-background:new 124.907 258.433 60 60;" xml:space="preserve">
<g id="Layer_1">
	<polygon style="display:none;fill:#0071BC;" points="66.036,363.063 169.827,284.747 176.673,272.445 165.484,280.604 
		69.839,352.773 51.289,365.581 	"/>
</g>
<g id="Layer_3">
</g>
<g id="Layer_2">
	<path style="fill:#FFFFFF;" d="M183.253,275.127c-0.379-3.38-2.703-5.678-5.951-6.106c0,0-9.082-1.348-22.352-1.348
		c-0.015,0-0.028,0-0.042,0c-0.015,0-0.028,0-0.042,0c-13.27,0-22.353,1.348-22.353,1.348c-3.248,0.429-5.572,2.726-5.951,6.106
		c0,0-0.719,6.152-0.719,13.263c0,0.015,0,0.028,0,0.043c0,0.015,0,0.028,0,0.043c0,7.111,0.719,13.263,0.719,13.263
		c0.379,3.38,2.703,5.678,5.951,6.106c0,0,9.083,1.348,22.352,1.348c0.015,0,0.028,0,0.042,0c0.015,0,0.028,0,0.042,0
		c13.27,0,22.352-1.348,22.352-1.348c3.248-0.429,5.572-2.725,5.951-6.106c0,0,0.719-6.152,0.719-13.263c0-0.015,0-0.028,0-0.043
		c0-0.015,0-0.029,0-0.043C183.97,281.279,183.253,275.127,183.253,275.127z M145.168,300.802c-6.214,0-9.973-4.765-9.973-12.402
		c0-7.604,4.125-12.336,9.373-12.336c5.744,0,8.955,3.557,9.451,9.595h-5.848c-0.183-2.448-1.41-3.851-3.342-3.851
		c-2.167,0-3.472,2.317-3.472,6.854c0,3.296,0.574,6.397,3.707,6.397c1.984,0,2.924-1.73,3.159-3.982h5.927
		C153.601,297.146,150.129,300.802,145.168,300.802z M165.638,300.802c-6.214,0-9.973-4.765-9.973-12.402
		c0-7.604,4.125-12.336,9.373-12.336c5.744,0,8.955,3.557,9.451,9.595h-5.848c-0.183-2.448-1.41-3.851-3.342-3.851
		c-2.167,0-3.472,2.317-3.472,6.854c0,3.296,0.575,6.397,3.708,6.397c1.984,0,2.924-1.73,3.159-3.982h5.927
		C174.071,297.146,170.598,300.802,165.638,300.802z"/>
</g>
</svg>
