<?xml version="1.0" encoding="iso-8859-1"?>
<!-- Generator: Adobe Illustrator 17.0.0, SVG Export Plug-In . SVG Version: 6.00 Build 0)  -->
<!DOCTYPE svg PUBLIC "-//W3C//DTD SVG 1.1//EN" "http://www.w3.org/Graphics/SVG/1.1/DTD/svg11.dtd">
<svg version="1.1" xmlns="http://www.w3.org/2000/svg" xmlns:xlink="http://www.w3.org/1999/xlink" x="0px" y="0px" width="60px"
	 height="60px" viewBox="-310.427 183.099 60 60" style="enable-background:new -310.427 183.099 60 60;" xml:space="preserve">
<g id="Layer_1">
	<path style="fill:#FFFFFF;" d="M-289.159,200.253l22.251,12.847l-22.251,12.846V200.253z M-254.196,213.099
		c0-14.464-11.767-26.231-26.231-26.231c-14.464,0-26.231,11.767-26.231,26.231c0,14.464,11.767,26.231,26.231,26.231
		C-265.963,239.33-254.196,227.563-254.196,213.099z M-256.998,213.099c0,12.919-10.51,23.429-23.429,23.429
		c-12.919,0-23.429-10.51-23.429-23.429c0-12.919,10.51-23.429,23.429-23.429C-268.154,189.67-256.998,200.826-256.998,213.099z"/>
</g>
<g id="Layer_3">
</g>
<g id="Layer_2">
</g>
</svg>
