<?xml version="1.0" encoding="iso-8859-1"?>
<!-- Generator: Adobe Illustrator 17.0.0, SVG Export Plug-In . SVG Version: 6.00 Build 0)  -->
<!DOCTYPE svg PUBLIC "-//W3C//DTD SVG 1.1//EN" "http://www.w3.org/Graphics/SVG/1.1/DTD/svg11.dtd">
<svg version="1.1" xmlns="http://www.w3.org/2000/svg" xmlns:xlink="http://www.w3.org/1999/xlink" x="0px" y="0px" width="60px"
	 height="60px" viewBox="-310.427 389.933 60 60" style="enable-background:new -310.427 389.933 60 60;" xml:space="preserve">
<g id="Layer_1">
	<path style="fill:#FFFFFF;" d="M-254.196,419.933c0-14.464-11.767-26.231-26.231-26.231c-14.464,0-26.231,11.767-26.231,26.231
		c0,14.464,11.767,26.231,26.231,26.231C-265.963,446.163-254.196,434.396-254.196,419.933z M-256.998,419.933
		c0,12.919-10.51,23.429-23.429,23.429c-12.919,0-23.429-10.51-23.429-23.429c0-12.919,10.51-23.429,23.429-23.429
		C-268.154,396.504-256.998,407.66-256.998,419.933z"/>
</g>
<g id="Layer_3">
</g>
<g id="Layer_2">
	<path style="fill:#FFFFFF;" d="M-280.902,406.931v-4.38l-10.766,6.216l10.766,6.215v-4.221c5.385,0.262,9.686,4.726,9.686,10.174
		c0,5.617-4.569,10.187-10.186,10.187c-2.712,0-5.267-1.059-7.193-2.98l-0.323-0.322l-2.938,2.448l0.373,0.387
		c2.669,2.77,6.25,4.295,10.082,4.295c7.727,0,14.013-6.286,14.013-14.014C-267.389,413.375-273.406,407.195-280.902,406.931z"/>
</g>
</svg>
