<?xml version="1.0" encoding="iso-8859-1"?>
<!-- Generator: Adobe Illustrator 17.0.0, SVG Export Plug-In . SVG Version: 6.00 Build 0)  -->
<!DOCTYPE svg PUBLIC "-//W3C//DTD SVG 1.1//EN" "http://www.w3.org/Graphics/SVG/1.1/DTD/svg11.dtd">
<svg version="1.1" xmlns="http://www.w3.org/2000/svg" xmlns:xlink="http://www.w3.org/1999/xlink" x="0px" y="0px" width="60px"
	 height="60px" viewBox="-172.26 747.4 60 60" style="enable-background:new -172.26 747.4 60 60;" xml:space="preserve">
<g id="Layer_1">
</g>
<g id="Layer_3">
</g>
<g id="Layer_2">
	<g>
		<path style="fill:#FFFFFF;" d="M-138.746,800.923c-4.563,0-8.759-1.566-12.112-4.169l-4.31,3.252
			c4.401,3.83,10.143,6.158,16.422,6.158c7.072,0,13.463-2.95,18.023-7.678l-4.033-3.361
			C-128.342,798.706-133.29,800.923-138.746,800.923z"/>
		<path style="fill:#FFFFFF;" d="M-157.119,788.483c-0.918-2.281-1.437-4.765-1.437-7.371c0-10.924,8.887-19.81,19.81-19.81v7.169
			l17.177-9.917l-17.177-9.917v7.425c-13.814,0-25.052,11.238-25.052,25.052c0,3.796,0.853,7.394,2.37,10.622L-157.119,788.483z"/>
	</g>
	
		<rect x="-144.599" y="750.451" transform="matrix(-0.6023 -0.7983 0.7983 -0.6023 -853.5905 1142.2939)" style="fill:#FFFFFF;" width="4.679" height="66.637"/>
</g>
</svg>
