<?xml version="1.0" encoding="UTF-8" standalone="no"?>
<svg width="27px" height="20px" viewBox="0 0 27 20" version="1.1" xmlns="http://www.w3.org/2000/svg" xmlns:xlink="http://www.w3.org/1999/xlink">
    <!-- Generator: Sketch 3.8.3 (29802) - http://www.bohemiancoding.com/sketch -->
    <title>Group 2</title>
    <desc>Created with Sketch.</desc>
    <defs></defs>
    <g id="Playback" stroke="none" stroke-width="1" fill="none" fill-rule="evenodd">
        <g id="AndroidPortraitPlayback_NoCC" transform="translate(-323.000000, -266.000000)" fill="#FFFFFF">
            <g id="Group-2" transform="translate(323.000000, 266.000000)">
                <polygon id="Fill-1" points="0.455478261 0.000260869565 0.455478261 6.38113043 2.27721739 6.38113043 2.27721739 3.11330435 5.54591304 6.38113043 6.83373913 5.09156522 3.56591304 1.82286957 6.83373913 1.82286957 6.83373913 0.000260869565"></polygon>
                <polygon id="Fill-2" points="2.2773913 16.3356522 2.2773913 13.0669565 0.455652174 13.0669565 0.455652174 19.4495652 6.83391304 19.4495652 6.83391304 17.6252174 3.56347826 17.6252174 6.83391304 14.3547826 5.54608696 13.0669565"></polygon>
                <polygon id="Fill-3" points="20.0089565 0.000260869565 20.0089565 1.82286957 23.2785217 1.82286957 20.0089565 5.09156522 21.2985217 6.38113043 24.5663478 3.11069565 24.5663478 6.38113043 26.388087 6.38113043 26.388087 0.000260869565"></polygon>
                <polygon id="Fill-4" points="24.566 13.0663478 24.566 16.3367826 21.2981739 13.0663478 20.0094783 14.3550435 23.279913 17.6254783 20.0094783 17.6254783 20.0094783 19.4498261 26.3886087 19.4498261 26.3886087 13.0663478"></polygon>
            </g>
        </g>
    </g>
</svg>