<?xml version="1.0" encoding="iso-8859-1"?>
<!-- Generator: Adobe Illustrator 17.0.0, SVG Export Plug-In . SVG Version: 6.00 Build 0)  -->
<!DOCTYPE svg PUBLIC "-//W3C//DTD SVG 1.1//EN" "http://www.w3.org/Graphics/SVG/1.1/DTD/svg11.dtd">
<svg version="1.1" xmlns="http://www.w3.org/2000/svg" xmlns:xlink="http://www.w3.org/1999/xlink" x="0px" y="0px" width="60px"
	 height="60px" viewBox="-310.427 318.433 60 60" style="enable-background:new -310.427 318.433 60 60;" xml:space="preserve">
<g id="Layer_1">
	<path style="fill:#FFFFFF;" d="M-254.196,348.432c0-14.464-11.767-26.231-26.231-26.231c-14.464,0-26.231,11.767-26.231,26.231
		c0,14.464,11.767,26.231,26.231,26.231C-265.963,374.663-254.196,362.896-254.196,348.432z M-256.998,348.432
		c0,12.919-10.51,23.429-23.429,23.429c-12.919,0-23.429-10.51-23.429-23.429c0-12.919,10.51-23.429,23.429-23.429
		C-268.154,325.004-256.998,336.16-256.998,348.432z"/>
</g>
<g id="Layer_3">
</g>
<g id="Layer_2">
	<path style="fill:#FFFFFF;" d="M-273.095,356.318l-0.323,0.322c-1.926,1.922-4.481,2.98-7.193,2.98
		c-5.616,0-10.186-4.569-10.186-10.187c0-5.448,4.3-9.912,9.686-10.174v4.221l10.766-6.215l-10.766-6.216v4.38
		c-7.496,0.265-13.513,6.444-13.513,14.004c0,7.728,6.286,14.014,14.013,14.014c3.831,0,7.411-1.525,10.082-4.295l0.373-0.387
		L-273.095,356.318z"/>
</g>
</svg>
