<?xml version="1.0" encoding="iso-8859-1"?>
<!-- Generator: Adobe Illustrator 17.0.0, SVG Export Plug-In . SVG Version: 6.00 Build 0)  -->
<!DOCTYPE svg PUBLIC "-//W3C//DTD SVG 1.1//EN" "http://www.w3.org/Graphics/SVG/1.1/DTD/svg11.dtd">
<svg version="1.1" xmlns="http://www.w3.org/2000/svg" xmlns:xlink="http://www.w3.org/1999/xlink" x="0px" y="0px" width="60px"
	 height="60px" viewBox="-25.427 258.433 60 60" style="enable-background:new -25.427 258.433 60 60;" xml:space="preserve">
<g id="Layer_1">
	<path style="fill:#2270de;" d="M31.628,275.733c-0.362-3.226-2.58-5.419-5.68-5.828c0,0-8.668-1.287-21.334-1.287
		c-0.014,0-0.027,0-0.04,0c-0.014,0-0.027,0-0.04,0c-12.666,0-21.335,1.287-21.335,1.287c-3.1,0.409-5.318,2.602-5.68,5.828
		c0,0-0.686,5.872-0.686,12.659c0,0.014,0,0.027,0,0.041s0,0.027,0,0.041c0,6.787,0.686,12.659,0.686,12.659
		c0.362,3.226,2.58,5.419,5.68,5.828c0,0,8.669,1.287,21.334,1.287c0.014,0,0.027,0,0.04,0c0.014,0,0.027,0,0.04,0
		c12.666,0,21.334-1.287,21.334-1.287c3.1-0.409,5.318-2.601,5.68-5.828c0,0,0.686-5.872,0.686-12.659c0-0.014,0-0.027,0-0.041
		s0-0.028,0-0.041C32.313,281.605,31.628,275.733,31.628,275.733z M1.308,300.874l-12.234-12.389l3.996-4.047l8.238,8.342
		l15.628-15.825L20.935,281L1.308,300.874z"/>
</g>
<g id="Layer_3">
</g>
<g id="Layer_2">
</g>
</svg>
