<?xml version="1.0" encoding="iso-8859-1"?>
<!-- Generator: Adobe Illustrator 17.0.0, SVG Export Plug-In . SVG Version: 6.00 Build 0)  -->
<!DOCTYPE svg PUBLIC "-//W3C//DTD SVG 1.1//EN" "http://www.w3.org/Graphics/SVG/1.1/DTD/svg11.dtd">
<svg version="1.1" xmlns="http://www.w3.org/2000/svg" xmlns:xlink="http://www.w3.org/1999/xlink" x="0px" y="0px" width="60px"
	 height="60px" viewBox="28.24 560.933 60 60" style="enable-background:new 28.24 560.933 60 60;" xml:space="preserve">
<g id="Layer_1">
	<path style="fill:#FFFFFF;" d="M59.194,597.159v1.252c0,0.959-0.723,1.439-1.607,1.065l-0.635-0.268L59.194,597.159z
		 M35.573,590.174l9.4,3.972c0.476,0.201,1.112,0.47,1.738,0.734l12.483-11.414v-2.888c0-0.959-0.723-1.439-1.607-1.065l-9.4,3.972
		c-0.884,0.373-2.33,0.984-3.213,1.358l-9.4,3.972C34.689,589.189,34.689,589.8,35.573,590.174z M79.963,579.513l-2.734,1.155
		l-13.204,12.073l3.324,1.405c0.884,0.373,2.33,0.984,3.213,1.358l9.4,3.972c0.884,0.373,1.607-0.106,1.607-1.065v-7.172
		c0-0.959,0-2.529,0-3.489v-7.172C81.57,579.619,80.847,579.139,79.963,579.513z M80.653,567.352l3.075,3.363l-47.901,43.799
		l-3.075-3.363L80.653,567.352z"/>
</g>
<g id="Layer_3">
</g>
<g id="Layer_2">
</g>
</svg>
