<?xml version="1.0" encoding="iso-8859-1"?>
<!-- Generator: Adobe Illustrator 17.0.0, SVG Export Plug-In . SVG Version: 6.00 Build 0)  -->
<!DOCTYPE svg PUBLIC "-//W3C//DTD SVG 1.1//EN" "http://www.w3.org/Graphics/SVG/1.1/DTD/svg11.dtd">
<svg version="1.1" xmlns="http://www.w3.org/2000/svg" xmlns:xlink="http://www.w3.org/1999/xlink" x="0px" y="0px" width="60px"
	 height="60px" viewBox="114.74 560.933 60 60" style="enable-background:new 114.74 560.933 60 60;" xml:space="preserve">
<g id="Layer_1">
	<path style="fill:#FFFFFF;" d="M143.786,585.211v-4.633c0-0.959,0.723-1.439,1.607-1.065l3.163,1.337L143.786,585.211z
		 M167.407,588.816l-8.609-3.638l-14.947,13.667c0.188,0.657,0.806,0.943,1.542,0.632l9.4-3.972c0.884-0.373,2.33-0.984,3.213-1.358
		l9.4-3.972C168.291,589.8,168.291,589.189,167.407,588.816z M123.017,599.476l9.4-3.972c0.061-0.026,0.141-0.06,0.207-0.088
		l8.859-8.1l-5.853-2.473c-0.884-0.373-2.33-0.985-3.213-1.358l-9.4-3.972c-0.884-0.373-1.607,0.106-1.607,1.065v7.172
		c0,0.959,0,2.529,0,3.489v7.172C121.41,599.37,122.133,599.85,123.017,599.476z M167.153,567.352l3.075,3.363l-47.901,43.799
		l-3.075-3.363L167.153,567.352z"/>
</g>
<g id="Layer_3">
</g>
<g id="Layer_2">
</g>
</svg>
