<?xml version="1.0" encoding="iso-8859-1"?>
<!-- Generator: Adobe Illustrator 17.0.0, SVG Export Plug-In . SVG Version: 6.00 Build 0)  -->
<!DOCTYPE svg PUBLIC "-//W3C//DTD SVG 1.1//EN" "http://www.w3.org/Graphics/SVG/1.1/DTD/svg11.dtd">
<svg version="1.1" xmlns="http://www.w3.org/2000/svg" xmlns:xlink="http://www.w3.org/1999/xlink" x="0px" y="0px" width="60px"
	 height="60px" viewBox="54.74 894.388 60 60" style="enable-background:new 54.74 894.388 60 60;" xml:space="preserve">
<g id="Layer_1">
</g>
<g id="Layer_3">
</g>
<g id="Layer_2">
	<g>
		<path style="fill:#FFFFFF;" d="M64.202,933.386c-1.213-2.757-1.891-5.799-1.891-8.999c0-12.367,10.062-22.429,22.429-22.429
			c5.146,0,10.09,2.055,14.02,5.351l4.181-3.155c-4.827-4.347-11.21-6.998-18.202-6.998c-15.015,0-27.231,12.216-27.231,27.23
			c0,4.288,0.999,8.345,2.773,11.957L64.202,933.386z"/>
		<path style="fill:#FFFFFF;" d="M105.115,915.511c1.306,2.77,2.054,5.785,2.054,8.876c0,12.367-10.062,22.429-22.429,22.429
			c-5.423,0-10.403-1.936-14.285-5.151l-3.917,2.955c4.827,4.347,11.21,6.998,18.202,6.998c15.015,0,27.23-12.216,27.23-27.23
			c0-4.288-0.999-8.345-2.773-11.957L105.115,915.511z"/>
	</g>
	
		<rect x="82.401" y="891.069" transform="matrix(-0.6023 -0.7983 0.7983 -0.6023 -602.1115 1548.814)" style="fill:#FFFFFF;" width="4.679" height="66.637"/>
</g>
</svg>
