<?xml version="1.0" encoding="iso-8859-1"?>
<!-- Generator: Adobe Illustrator 17.0.0, SVG Export Plug-In . SVG Version: 6.00 Build 0)  -->
<!DOCTYPE svg PUBLIC "-//W3C//DTD SVG 1.1//EN" "http://www.w3.org/Graphics/SVG/1.1/DTD/svg11.dtd">
<svg version="1.1" xmlns="http://www.w3.org/2000/svg" xmlns:xlink="http://www.w3.org/1999/xlink" x="0px" y="0px" width="60px"
	 height="60px" viewBox="-481.199 183.099 60 60" style="enable-background:new -481.199 183.099 60 60;" xml:space="preserve">
<g id="Layer_1">
	<circle style="fill:#FFFFFF;fill-opacity:0.5;" cx="-451.199" cy="213.099" r="24.333"/>
	<path style="fill:#FFFFFF;" d="M-459.931,200.253l22.251,12.847l-22.251,12.846V200.253z M-424.968,213.099
		c0-14.464-11.767-26.231-26.231-26.231s-26.231,11.767-26.231,26.231s11.767,26.231,26.231,26.231
		S-424.968,227.563-424.968,213.099z M-427.77,213.099c0,12.919-10.51,23.429-23.429,23.429c-12.919,0-23.429-10.51-23.429-23.429
		c0-12.919,10.51-23.429,23.429-23.429C-438.926,189.67-427.77,200.826-427.77,213.099z"/>
</g>
<g id="Layer_3">
</g>
<g id="Layer_2">
	<path style="fill-opacity:0.3;" d="M-460.015,201.669l22.251,12.847l-22.251,12.846V201.669z M-425.051,214.516
		c0-14.464-11.767-26.231-26.231-26.231c-14.464,0-26.231,11.767-26.231,26.231s11.767,26.231,26.231,26.231
		C-436.818,240.747-425.051,228.98-425.051,214.516z M-427.853,214.516c0,12.919-10.51,23.429-23.429,23.429
		c-12.919,0-23.429-10.51-23.429-23.429c0-12.919,10.51-23.429,23.429-23.429C-439.009,191.087-427.853,202.243-427.853,214.516z"/>
	<circle style="fill-opacity:0.5;" cx="-451.199" cy="213.099" r="24.333"/>
	<path style="fill:#FFFFFF;" d="M-459.931,200.253l22.251,12.847l-22.251,12.846V200.253z M-424.968,213.099
		c0-14.464-11.767-26.231-26.231-26.231s-26.231,11.767-26.231,26.231s11.767,26.231,26.231,26.231
		S-424.968,227.563-424.968,213.099z M-427.77,213.099c0,12.919-10.51,23.429-23.429,23.429c-12.919,0-23.429-10.51-23.429-23.429
		c0-12.919,10.51-23.429,23.429-23.429C-438.926,189.67-427.77,200.826-427.77,213.099z"/>
</g>
</svg>
