<?xml version="1.0" encoding="iso-8859-1"?>
<!-- Generator: Adobe Illustrator 17.0.0, SVG Export Plug-In . SVG Version: 6.00 Build 0)  -->
<!DOCTYPE svg PUBLIC "-//W3C//DTD SVG 1.1//EN" "http://www.w3.org/Graphics/SVG/1.1/DTD/svg11.dtd">
<svg version="1.1" xmlns="http://www.w3.org/2000/svg" xmlns:xlink="http://www.w3.org/1999/xlink" x="0px" y="0px" width="60px"
	 height="60px" viewBox="124.907 183.099 60 60" style="enable-background:new 124.907 183.099 60 60;" xml:space="preserve">
<g id="Layer_1">
	<path style="fill:#FFFFFF;" d="M154.949,195.168c12.843,0,21.79,1.315,21.878,1.329l0.023,0.003l0.023,0.003
		c1.936,0.259,3.172,1.538,3.393,3.523c0.007,0.06,0.697,6.131,0.697,13.03v0.044v0.043c0,6.899-0.689,12.97-0.698,13.043
		c-0.219,1.972-1.455,3.252-3.391,3.51l-0.023,0.003l-0.023,0.003c-0.089,0.013-8.999,1.329-21.878,1.329h-0.042h-0.042
		c-12.842,0-21.79-1.315-21.878-1.329l-0.023-0.003l-0.023-0.003c-1.936-0.259-3.172-1.538-3.392-3.523
		c-0.007-0.06-0.697-6.131-0.697-13.03v-0.043v-0.044c0-6.899,0.689-12.97,0.698-13.043c0.219-1.972,1.455-3.252,3.391-3.51
		l0.023-0.003l0.023-0.003c0.089-0.013,9-1.329,21.878-1.329h0.042H154.949 M154.949,192.15c-0.014,0-0.028,0-0.042,0
		c-0.014,0-0.028,0-0.042,0c-13.242,0-22.306,1.36-22.306,1.36c-3.241,0.433-5.56,2.751-5.939,6.162c0,0-0.717,6.208-0.717,13.384
		c0,0.014,0,0.029,0,0.044c0,0.014,0,0.029,0,0.043c0,7.175,0.717,13.384,0.717,13.384c0.379,3.411,2.698,5.729,5.939,6.162
		c0,0,9.063,1.36,22.306,1.36c0.014,0,0.028,0,0.042,0c0.014,0,0.028,0,0.042,0c13.243,0,22.306-1.36,22.306-1.36
		c3.241-0.433,5.56-2.75,5.939-6.162c0,0,0.717-6.208,0.717-13.384c0-0.014,0-0.029,0-0.043c0-0.015,0-0.029,0-0.044
		c0-7.175-0.717-13.384-0.717-13.384c-0.379-3.411-2.698-5.729-5.939-6.162C177.254,193.51,168.192,192.15,154.949,192.15
		L154.949,192.15z"/>
</g>
<g id="Layer_3">
</g>
<g id="Layer_2">
	<path style="fill:#FFFFFF;" d="M154.019,210.325c-0.496-6.038-3.707-9.595-9.451-9.595c-5.248,0-9.373,4.732-9.373,12.336
		c0,7.637,3.76,12.402,9.973,12.402c4.961,0,8.433-3.655,8.981-9.726h-5.927c-0.235,2.252-1.175,3.982-3.159,3.982
		c-3.133,0-3.707-3.1-3.707-6.397c0-4.537,1.305-6.854,3.472-6.854c1.932,0,3.159,1.403,3.342,3.851H154.019z M174.488,210.325
		c-0.496-6.038-3.707-9.595-9.451-9.595c-5.248,0-9.373,4.732-9.373,12.336c0,7.637,3.759,12.402,9.973,12.402
		c4.961,0,8.433-3.655,8.981-9.726h-5.927c-0.235,2.252-1.175,3.982-3.159,3.982c-3.133,0-3.708-3.1-3.708-6.397
		c0-4.537,1.306-6.854,3.472-6.854c1.932,0,3.159,1.403,3.342,3.851H174.488z"/>
</g>
</svg>
