<?xml version="1.0" encoding="iso-8859-1"?>
<!-- Generator: Adobe Illustrator 17.0.0, SVG Export Plug-In . SVG Version: 6.00 Build 0)  -->
<!DOCTYPE svg PUBLIC "-//W3C//DTD SVG 1.1//EN" "http://www.w3.org/Graphics/SVG/1.1/DTD/svg11.dtd">
<svg version="1.1" xmlns="http://www.w3.org/2000/svg" xmlns:xlink="http://www.w3.org/1999/xlink" x="0px" y="0px" width="60px"
	 height="60px" viewBox="-94.608 747.4 60 60" style="enable-background:new -94.608 747.4 60 60;" xml:space="preserve">
<g id="Layer_1">
</g>
<g id="Layer_3">
</g>
<g id="Layer_2">
	<g>
		<path style="fill:#FFFFFF;" d="M-48.558,778.156c0.146,0.967,0.245,1.949,0.245,2.956c0,10.924-8.887,19.811-19.81,19.811
			c-2.932,0-5.708-0.658-8.215-1.806l-4.622,3.488c3.757,2.255,8.145,3.559,12.837,3.559c13.814,0,25.052-11.239,25.052-25.052
			c0-2.232-0.297-4.395-0.848-6.456L-48.558,778.156z"/>
		<path style="fill:#FFFFFF;" d="M-68.122,761.302c6.108,0,11.576,2.782,15.213,7.142l4.188-3.16
			c-4.598-5.625-11.586-9.223-19.401-9.223v-7.425l-17.177,9.917l17.177,9.917V761.302z"/>
	</g>
	
		<rect x="-66.948" y="750.451" transform="matrix(-0.6023 -0.7983 0.7983 -0.6023 -729.1667 1204.2797)" style="fill:#FFFFFF;" width="4.679" height="66.637"/>
</g>
</svg>
