<?xml version="1.0" encoding="UTF-8" standalone="no"?>
<svg width="27px" height="20px" viewBox="0 0 27 20" version="1.1" xmlns="http://www.w3.org/2000/svg" xmlns:xlink="http://www.w3.org/1999/xlink">
    <!-- Generator: Sketch 3.8.3 (29802) - http://www.bohemiancoding.com/sketch -->
    <title>Fill 9</title>
    <desc>Created with Sketch.</desc>
    <defs></defs>
    <g id="Playback" stroke="none" stroke-width="1" fill="none" fill-rule="evenodd">
        <g id="AndroidLandscapePlayback" transform="translate(-512.000000, -324.000000)" fill="#FFFFFF">
            <path d="M512,344 L538.958517,344 L538.958517,324 L512,324 L512,344 Z M535.989922,325.738504 L537.218213,326.966796 L534.097543,330.086565 L537.218213,330.086565 L537.218213,331.82507 L531.130748,331.82507 L531.130748,325.738504 L532.870152,325.738504 L532.870152,328.854675 L535.989922,325.738504 Z M518.087465,325.738504 L519.827769,325.738504 L519.827769,331.82507 L513.739404,331.82507 L513.739404,330.085665 L516.857374,330.085665 L513.739404,326.966796 L514.968595,325.738504 L518.087465,328.857374 L518.087465,325.738504 Z M531.130748,336.173131 L537.218213,336.173131 L537.218213,337.913435 L534.097543,337.913435 L537.218213,341.031405 L535.989922,342.261496 L532.869252,339.144425 L532.869252,342.261496 L531.130748,342.261496 L531.130748,336.173131 Z M513.739404,336.173131 L519.827769,336.173131 L519.827769,342.261496 L518.086565,342.261496 L518.086565,339.142626 L514.968595,342.261496 L513.739404,341.031405 L516.859174,337.913435 L513.739404,337.913435 L513.739404,336.173131 Z" id="Fill-9"></path>
        </g>
    </g>
</svg>