<svg xmlns="http://www.w3.org/2000/svg" width="60" height="60" viewBox="46.573 329.933 60 60"><path d="M102.804 359.933c0-14.464-11.767-26.23-26.23-26.23-14.465 0-26.232 11.766-26.232 26.23s11.767 26.23 26.23 26.23c14.465 0 26.232-11.767 26.232-26.23zm-2.802 0c0 12.92-10.51 23.43-23.43 23.43-12.918 0-23.428-10.51-23.428-23.43s10.51-23.43 23.43-23.43c12.272 0 23.428 11.157 23.428 23.43z" fill="#FFF"/><g fill="#FFF"><path d="M102.804 359.933c0-14.464-11.767-26.23-26.23-26.23-14.465 0-26.232 11.766-26.232 26.23s11.767 26.23 26.23 26.23c14.465 0 26.232-11.767 26.232-26.23zm-2.802 0c0 12.92-10.51 23.43-23.43 23.43-12.918 0-23.428-10.51-23.428-23.43s10.51-23.43 23.43-23.43c12.272 0 23.428 11.157 23.428 23.43z"/><path d="M68.87 349.087h5.914v21.69H68.87zM78.363 349.087h5.915v21.69h-5.915z"/></g></svg>