<?xml version="1.0" encoding="iso-8859-1"?>
<!-- Generator: Adobe Illustrator 17.0.0, SVG Export Plug-In . SVG Version: 6.00 Build 0)  -->
<!DOCTYPE svg PUBLIC "-//W3C//DTD SVG 1.1//EN" "http://www.w3.org/Graphics/SVG/1.1/DTD/svg11.dtd">
<svg version="1.1" xmlns="http://www.w3.org/2000/svg" xmlns:xlink="http://www.w3.org/1999/xlink" x="0px" y="0px" width="60px"
	 height="60px" viewBox="28.24 484.433 60 60" style="enable-background:new 28.24 484.433 60 60;" xml:space="preserve">
<g id="Layer_1">
	<path style="fill:#FFFFFF;" d="M35.235,513.268l9.541-6.814c0.897-0.641,2.364-1.689,3.261-2.329l9.541-6.815
		c0.897-0.641,1.631,0.182,1.631,1.827v12.303c0,0.279,0,0.596,0,0.925l8.277-5.912c0.897-0.641,2.364-1.689,3.261-2.329
		l9.541-6.815c0.897-0.641,1.631,0.182,1.631,1.827v12.303c0,1.646,0,4.339,0,5.984v12.303c0,1.646-0.734,2.468-1.631,1.827
		l-9.541-6.815c-0.897-0.641-2.364-1.689-3.261-2.329l-8.277-5.912c0,0.329,0,0.646,0,0.925v12.303c0,1.646-0.734,2.468-1.631,1.827
		l-9.541-6.815c-0.897-0.641-2.364-1.689-3.261-2.329l-9.541-6.814C34.338,514.957,34.338,513.908,35.235,513.268z"/>
</g>
<g id="Layer_3">
</g>
<g id="Layer_2">
</g>
</svg>
