<svg xmlns="http://www.w3.org/2000/svg" viewBox="0 0 70 70">
	<path fill="#FFFFFF" d="M50.4,9H19.5C13.7,9,9,13.7,9,19.5v30.8C9,56.2,13.7,61,19.5,61h30.8C56.2,61,61,56.2,61,50.4V19.5
		C61,13.7,56.2,9,50.4,9z M19.5,28.2c0-2.1,1.7-3.9,3.9-3.9c2.1,0,3.9,1.7,3.9,3.9c0,2.1-1.7,3.9-3.9,3.9
		C21.3,32.1,19.5,30.3,19.5,28.2z M46.6,45.5c-0.2,0.2-4.6,4.5-11.7,4.5c0,0,0,0,0,0c-3.5,0-6.3-1-8.1-2.2c-1.8-1.2-2.7-2.3-2.9-2.5
		c-1-1.3-0.5-3,0.8-4c1.3-0.9,3.2-0.7,4.2,0.6v0v0c0,0-0.2,0-0.2,0c0,0.1,0,0.2,0.2,0.3c0.2,0.2,0.6,0.6,1.1,1
		c1.1,0.7,2.6,1.4,4.9,1.4c4.1,0.1,7.3-2.7,7.6-3l0,0l0,0l0,0c1.1-1.1,3-1.2,4.1-0.1C47.8,42.6,47.8,44.3,46.6,45.5z M46.5,32.1
		c-2.1,0-3.9-1.7-3.9-3.9c0-2.1,1.7-3.9,3.9-3.9c2.1,0,3.9,1.7,3.9,3.9C50.4,30.3,48.6,32.1,46.5,32.1z"/>
</svg>
