<?xml version="1.0" encoding="iso-8859-1"?>
<!-- Generator: Adobe Illustrator 17.0.0, SVG Export Plug-In . SVG Version: 6.00 Build 0)  -->
<!DOCTYPE svg PUBLIC "-//W3C//DTD SVG 1.1//EN" "http://www.w3.org/Graphics/SVG/1.1/DTD/svg11.dtd">
<svg version="1.1" xmlns="http://www.w3.org/2000/svg" xmlns:xlink="http://www.w3.org/1999/xlink" x="0px" y="0px" width="60px"
	 height="60px" viewBox="44.148 329.933 60 60" style="enable-background:new 44.148 329.933 60 60;" xml:space="preserve">
<g id="Layer_1">
	<polygon style="display:none;fill:#0071BC;" points="66.036,363.063 169.827,284.747 176.673,272.445 165.484,280.604 
		69.839,352.773 51.289,365.581 	"/>
</g>
<g id="Layer_3">
</g>
<g id="Layer_2">
	<g>
		<path style="fill:#FFFFFF;" d="M83.064,343.363c2.57,0,4.985,0.994,6.801,2.8c1.811,1.801,2.809,4.195,2.809,6.74
			c0,2.545-0.997,4.938-2.809,6.739l-15.718,15.629L58.43,359.642c-1.811-1.801-2.809-4.194-2.809-6.739s0.998-4.938,2.809-6.739
			c1.816-1.806,4.231-2.8,6.801-2.8c2.57,0,4.986,0.995,6.801,2.8l2.115,2.103l2.115-2.103
			C78.079,344.357,80.494,343.363,83.064,343.363 M83.064,340.363c-3.227,0-6.454,1.224-8.917,3.673
			c-2.462-2.448-5.689-3.672-8.916-3.672c-3.228,0-6.454,1.224-8.917,3.673c-4.925,4.897-4.925,12.836,0,17.733l17.833,17.733
			l17.833-17.733c4.924-4.897,4.924-12.836,0-17.733C89.518,341.587,86.291,340.363,83.064,340.363L83.064,340.363z"/>
	</g>
</g>
</svg>
